{"title":"Maken-ki! Battling Venus ep 13","uid":9377305,"size":78383313,"categoryP":"video","categoryS":"tv_shows","magnet":"?xt=urn:btih:adc6dbb85c31d94240c94e52343843d8dbec08d5&amp;dn=Maken-ki%21+Battling+Venus+ep+13&amp;tr=udp%3A%2F%2Ftracker.openbittorrent.com%3A80&amp;tr=udp%3A%2F%2Fopen.demonii.com%3A1337&amp;tr=udp%3A%2F%2Ftracker.coppersurfer.tk%3A6969&amp;tr=udp%3A%2F%2Fexodus.desync.com%3A6969","seeders":1,"leechers":0,"uploader":"p7trick","files":-1,"time":1387643494,"description":"downloaded from watchcartoononline\n\n\nMaken- ki! Battling Venus dubbed eps 1-12\n\n_________________________________________________________\n\nFormat                                   : MPEG-4\nFormat profile                           : Base Media\nCodec ID                                 : isom\nFile size                                : 74.8 MiB\nDuration                                 : 25mn 39s\nOverall bit rate                         : 407 Kbps\nWriting application                      : Lavf55.3.100\n\nVideo\nID                                       : 1\nFormat                                   : AVC\nFormat/Info                              : Advanced Video Codec\nFormat profile                           : &lt;a class=&quot;__cf_email__&quot; href=&quot;/cdn-cgi/l/email-protection&quot; data-cfemail=&quot;a1e3c0d2c4cdc8cfc4e1ed928f91&quot;&gt;[email&amp;#160;protected]&lt;/a&gt;&lt;script cf-hash='f9e31' type=&quot;text/javascript&quot;&gt;\n/* &lt;![CDATA[ */!function(){try{var t=&quot;currentScript&quot;in document?document.currentScript:function(){for(var t=document.getElementsByTagName(&quot;script&quot;),e=t.length;e--;)if(t[e].getAttribute(&quot;cf-hash&quot;))return t[e]}();if(t&amp;&amp;t.previousSibling){var e,r,n,i,c=t.previousSibling,a=c.getAttribute(&quot;data-cfemail&quot;);if(a){for(e=&quot;&quot;,r=parseInt(a.substr(0,2),16),n=2;a.length-n;n+=2)i=parseInt(a.substr(n,2),16)^r,e+=String.fromCharCode(i);e=document.createTextNode(e),c.parentNode.replaceChild(e,c)}}}catch(u){}}();/* ]]&gt; */&lt;/script&gt;\nFormat settings, CABAC                   : No\nFormat settings, ReFrames                : 5 frames\nCodec ID                                 : avc1\nCodec ID/Info                            : Advanced Video Coding\nDuration                                 : 25mn 39s\nBit rate                                 : 282 Kbps\nWidth                                    : 640 pixels\nHeight                                   : 360 pixels\nDisplay aspect ratio                     : 16:9\nFrame rate mode                          : Constant\nFrame rate                               : 23.976 fps\nColor space                              : YUV\nChroma subsampling                       : 4:2:0\nBit depth                                : 8 bits\nScan type                                : Progressive\nBits/(Pixel*Frame)                       : 0.051\nStream size                              : 51.8 MiB (69%)\nWriting library                          : x264 core 130 r2274 c832fe9\n\nAudio\nID                                       : 2\nFormat                                   : AAC\nFormat/Info                              : Advanced Audio Codec\nFormat profile                           : LC\nCodec ID                                 : 40\nDuration                                 : 23mn 55s\nBit rate mode                            : Constant\nBit rate                                 : 128 Kbps\nChannel count                            : 2 channels\nChannel positions                        : Front: L R\nSampling rate                            : 44.1 KHz\nCompression mode                         : Lossy\nStream size                              : 21.9 MiB (29%)\nLanguage                                 : English\n_________________________________________________________\n\nSummary:\nKokoro Connect revolves around the daily, not so normal lives of Taichi, Iori, Himeko, Yoshifumi and Yui and their encounters in the Cultural Research Club. Up until recently they thought that they and their friends lived normal happy lives, but now the Heartseed is pulling their lives apart and exposing their inner secrets through body switching, urges and age regression.\nThe love and teen pentagonal comedy follows the strange phenomena at the Yamahoshi AcademyÎ“Ã‡Ã–s Culture Club, starting with the five male and female club members switching bodies with each other.\n\nfor updates:\ntwitter - @p7tricktorrent\nFacebook - /p7tricktorrent\n_________________________________________________________\n\nSEED!\n\nshare ratio:\n&quot;Scumbag = 0.1:1\nLeecher = 0.999:1\nMinimum = 1:1\nGood = 3:1\nGreat = 5:1\nAwesome = 10:1\n1337 = 100:1&quot;\t","torrent":{"xt":"urn:btih:adc6dbb85c31d94240c94e52343843d8dbec08d5","amp;dn":"Maken-ki%21+Battling+Venus+ep+13","amp;tr":["udp%3A%2F%2Ftracker.openbittorrent.com%3A80","udp%3A%2F%2Fopen.demonii.com%3A1337","udp%3A%2F%2Ftracker.coppersurfer.tk%3A6969","udp%3A%2F%2Fexodus.desync.com%3A6969"],"infoHash":"adc6dbb85c31d94240c94e52343843d8dbec08d5","infoHashBuffer":{"type":"Buffer","data":[173,198,219,184,92,49,217,66,64,201,78,82,52,56,67,216,219,236,8,213]},"announce":[],"urlList":[]}}